<?xml version="1.0" standalone="no"?>
<!DOCTYPE svg PUBLIC "-//W3C//DTD SVG 20010904//EN"
 "http://www.w3.org/TR/2001/REC-SVG-20010904/DTD/svg10.dtd">
<svg version="1.0" xmlns="http://www.w3.org/2000/svg"
 width="512.000000pt" height="512.000000pt" viewBox="0 0 512.000000 512.000000"
 preserveAspectRatio="xMidYMid meet">

<g transform="translate(0.000000,512.000000) scale(0.100000,-0.100000)"
fill="#000000" stroke="none">
<path d="M1281 4535 c-173 -39 -299 -105 -417 -217 -354 -337 -354 -889 0
-1226 172 -163 389 -242 626 -229 133 8 200 26 325 87 218 106 368 285 441
525 24 80 27 106 27 230 0 123 -3 151 -26 228 -90 294 -301 505 -589 587 -97
28 -296 36 -387 15z"/>
<path d="M3538 4540 c-115 -20 -246 -74 -348 -143 -151 -104 -267 -268 -327
-464 -23 -77 -26 -105 -26 -228 0 -124 3 -150 27 -230 73 -240 223 -419 441
-525 125 -61 192 -79 325 -87 237 -13 454 66 626 229 354 337 354 889 0 1226
-160 151 -365 233 -581 231 -49 -1 -111 -5 -137 -9z"/>
<path d="M895 2783 c-388 -70 -709 -346 -836 -719 -54 -159 -59 -221 -59 -755
l0 -485 163 -47 c545 -155 991 -217 1482 -204 196 6 528 37 542 51 3 2 -25 14
-60 25 l-64 22 -12 82 c-18 129 -15 1037 4 1152 40 247 135 457 289 639 31 36
54 71 51 76 -12 19 -138 83 -231 116 -165 59 -224 64 -734 63 -349 -1 -474 -5
-535 -16z"/>
<path d="M3142 2785 c-355 -64 -638 -275 -793 -590 -106 -217 -121 -339 -117
-955 l3 -414 75 -24 c111 -35 398 -108 535 -136 527 -109 1108 -124 1585 -41
213 37 461 109 613 178 l77 36 0 478 c0 525 -5 588 -59 747 -129 378 -450 651
-846 720 -120 21 -959 22 -1073 1z"/>
</g>
</svg>
